<svg width="65" height="50" viewBox="0 0 65 50" fill="none" xmlns="http://www.w3.org/2000/svg">
<path fill-rule="evenodd" clip-rule="evenodd" d="M8.24344 40.2825H2.84257V34.1715H0V49.5993H2.84257V43.1877H8.24344V49.5993H11.086V34.1715H8.24344V40.2825ZM20.7507 33.871C18.6662 33.871 16.8659 34.6724 15.3499 36.1751C13.9286 37.778 13.1706 39.6814 13.1706 41.8854C13.1706 44.0894 13.9286 45.9928 15.3499 47.5957C16.7711 49.0984 18.5714 49.8998 20.7507 49.8998C22.8353 49.8998 24.6356 49.0984 26.1516 47.5957C27.6676 46.093 28.3309 44.1895 28.3309 41.8854C28.3309 39.5813 27.5729 37.778 26.1516 36.1751C24.6356 34.6724 22.8353 33.871 20.7507 33.871ZM24.0671 45.4919C23.1195 46.3935 22.0773 46.8944 20.7507 46.8944C19.4242 46.8944 18.2872 46.3935 17.4344 45.4919C16.4869 44.5903 16.1079 43.2879 16.1079 41.8854C16.1079 40.3827 16.5816 39.1805 17.4344 38.2789C18.3819 37.2771 19.4242 36.8764 20.7507 36.8764C22.0773 36.8764 23.2143 37.3773 24.0671 38.2789C25.0146 39.2807 25.3936 40.4829 25.3936 41.8854C25.4883 43.3881 25.0146 44.5903 24.0671 45.4919ZM38.3746 44.2897C38.3746 45.0912 38.1851 45.6923 37.7114 46.1932C37.2376 46.6941 36.5743 46.8944 35.6268 46.8944C34.6793 46.8944 34.016 46.6941 33.5423 46.1932C33.0685 45.6923 32.879 45.0912 32.879 44.2897V34.1715H30.0364V44.5903C30.0364 46.1932 30.5102 47.4955 31.5525 48.4973C32.5948 49.4991 33.9213 50 35.5321 50C37.1429 50 38.4694 49.4991 39.5117 48.4973C40.5539 47.4955 41.0277 46.1932 41.0277 44.5903V34.1715H38.1851V44.2897H38.3746ZM53.6297 43.0876C53.4402 42.787 53.2507 42.5867 52.9665 42.2861C52.6822 42.0858 52.398 41.8854 52.2085 41.685C52.0189 41.5849 51.7347 41.3845 51.2609 41.1841C50.8819 40.9838 50.5977 40.8836 50.3134 40.7834C50.1239 40.6832 49.7449 40.5831 49.2711 40.4829C48.2289 40.0822 47.4708 39.7816 47.0918 39.4811C46.7128 39.1805 46.5233 38.7798 46.5233 38.2789C46.5233 37.778 46.7128 37.4775 46.9971 37.1769C47.3761 36.8764 47.8499 36.7762 48.4184 36.7762C49.6501 36.7762 50.5977 37.4775 51.1662 38.7798L53.6297 37.2771C53.156 36.1751 52.398 35.3737 51.5452 34.7726C50.6924 34.1715 49.6501 33.871 48.4184 33.871C47.0918 33.871 45.9548 34.2717 45.0073 35.0731C44.0598 35.8746 43.586 36.9766 43.586 38.3791C43.586 39.0803 43.6808 39.6814 43.965 40.1823C44.1545 40.6832 44.5335 41.1841 45.0073 41.4847C45.481 41.7852 45.9548 42.0858 46.3338 42.2861C46.8076 42.4865 47.3761 42.6868 47.9446 42.8872C49.0816 43.2879 49.9344 43.5885 50.4082 43.889C50.8819 44.1895 51.0714 44.5903 51.0714 45.1913C51.0714 45.6923 50.8819 46.093 50.5029 46.3935C50.1239 46.6941 49.5554 46.8944 48.7026 46.8944C46.9971 46.8944 45.9548 46.093 45.3863 44.4901L42.9227 45.9928C43.3018 47.195 44.0598 48.0966 45.0073 48.7978C45.9548 49.4991 47.1866 49.7996 48.6079 49.7996C50.2187 49.7996 51.4504 49.3989 52.398 48.4973C53.3455 47.5957 53.914 46.4937 53.914 45.0912C53.914 44.6904 53.8192 44.2897 53.7245 43.889C53.8192 43.6886 53.7245 43.2879 53.6297 43.0876ZM58.7464 46.6941V43.1877H64.3367V40.2825H58.8411V36.9766H64.9053V34.0713H55.9985V49.4991H65V46.5939H58.7464V46.6941Z" fill="#252525"/>
<path d="M7.95095 28.8136C10.1029 28.1027 12.0204 26.8571 13.7249 25.099C16.4504 22.1875 17.8132 18.5733 17.8132 14.1558C17.8132 9.83882 16.4504 6.22456 13.7249 3.21268C12.4099 1.75953 10.9137 0.703666 9.25799 0H21.0254V28.8136H7.95095Z" fill="#252525"/>
<path d="M40.4934 28.8136H50.9841L42.0993 0H40.2987V6.82694H29.494V10.2404H39.228V18.0713H29.494V21.4848H40.4934V28.8136Z" fill="#252525"/>
<path d="M51.3794 0L55.9704 18.3725L60.5615 0H51.3794Z" fill="#252525"/>
<path d="M64.9257 15.9422L60.9568 28.8136H64.9257V15.9422Z" fill="#252525"/>
<path d="M3.4069 20.9828C5.15901 20.9828 6.61911 20.3804 7.68985 19.0752C8.76059 17.8705 9.34463 16.1638 9.34463 14.1558C9.34463 12.1479 8.76059 10.5416 7.68985 9.23644C6.52177 7.9313 5.15901 7.32892 3.4069 7.32892H0V20.9828H3.4069Z" fill="#252525"/>
</svg>
